<svg width="17" height="14" viewBox="0 0 17 14" fill="none" xmlns="http://www.w3.org/2000/svg">
<path fill-rule="evenodd" clip-rule="evenodd" d="M17 6.8C17 7.50417 16.4292 8.075 15.725 8.075H4.44054L8.10871 11.4059C8.6163 11.894 8.63212 12.7011 8.14406 13.2087C7.656 13.7163 6.84887 13.7321 6.34129 13.2441L0.391286 7.71906C0.141287 7.47868 -1.51601e-08 7.14682 0 6.8C1.51601e-08 6.45318 0.141287 6.12132 0.391286 5.88094L6.34129 0.355939C6.84887 -0.132122 7.656 -0.116296 8.14406 0.391288C8.63212 0.898872 8.6163 1.706 8.10871 2.19406L4.44054 5.525H15.725C16.4292 5.525 17 6.09584 17 6.8Z" fill="#262626"/>
</svg>
