<svg width="17" height="14" viewBox="0 0 17 14" fill="none" xmlns="http://www.w3.org/2000/svg">
<path fill-rule="evenodd" clip-rule="evenodd" d="M0 6.8C8.39706e-09 6.09584 0.570837 5.525 1.275 5.525H12.5595L8.89129 2.19406C8.3837 1.706 8.36788 0.898872 8.85594 0.391287C9.344 -0.116296 10.1511 -0.132122 10.6587 0.355939L16.6087 5.88094C16.8587 6.12132 17 6.45318 17 6.8C17 7.14682 16.8587 7.47868 16.6087 7.71906L10.6587 13.2441C10.1511 13.7321 9.344 13.7163 8.85594 13.2087C8.36788 12.7011 8.3837 11.894 8.89129 11.4059L12.5595 8.075H1.275C0.570837 8.075 -8.39706e-09 7.50416 0 6.8Z" fill="#262626"/>
</svg>
